<svg xmlns="http://www.w3.org/2000/svg" width="344.25" height="65.352" viewBox="0 0 344.25 65.352">
  <g id="Group_1" data-name="Group 1" transform="translate(-860 -474)">
    <g id="pushtowallet-01" transform="translate(611.16 220.326)">
      <path id="Path_1" data-name="Path 1" d="M403.59,317.21v-7.85a1.81,1.81,0,0,0-1.81-1.81H370.09a1.83,1.83,0,0,1-1.82-1.82V267a1.83,1.83,0,0,1,1.82-1.82h31.7a1.81,1.81,0,0,0,1.81-1.82V255.5a1.82,1.82,0,0,1,3.11-1.29l30.8,30.85a1.84,1.84,0,0,1,0,2.57L406.7,318.49a1.82,1.82,0,0,1-3.11-1.28Z" fill="#00b9f9"/>
      <path id="Path_2" data-name="Path 2" d="M257.34,289.25v11.37h-8.5V265.68h12q6.3,0,9.75,3.12,3.25,2.94,3.25,8.37a13.24,13.24,0,0,1-1.38,6,9.94,9.94,0,0,1-5,4.84,14.861,14.861,0,0,1-6.11,1.23Zm0-7h2.35a7,7,0,0,0,3.05-.59,4.35,4.35,0,0,0,2.51-4.2,4.67,4.67,0,0,0-1.37-3.52,5,5,0,0,0-3.62-1.32h-2.92Z" fill="#33e54c"/>
      <path id="Path_3" data-name="Path 3" d="M293.1,276.32h8v15.29a12.81,12.81,0,0,1-.67,4.51,7.11,7.11,0,0,1-2.2,3,12.92,12.92,0,0,1-8.29,2.48c-3.76,0-6.64-.9-8.66-2.69q-2.65-2.36-2.66-7.29v-15.3h8V291a5.45,5.45,0,0,0,.39,2.18,2.88,2.88,0,0,0,1.17,1.28,3.52,3.52,0,0,0,1.8.48,3.07,3.07,0,0,0,2.34-.9,3.51,3.51,0,0,0,.86-2.5Z" fill="#33e54c"/>
      <path id="Path_4" data-name="Path 4" d="M326.17,283.54h-7.43a4.725,4.725,0,0,0,0-.48,1.78,1.78,0,0,0-.68-1.42,2.43,2.43,0,0,0-1.65-.58,2,2,0,0,0-1.33.46,1.48,1.48,0,0,0-.54,1.18,1.53,1.53,0,0,0,.63,1.24,6.471,6.471,0,0,0,2.13.93,21.759,21.759,0,0,1,6.48,2.72,6.62,6.62,0,0,1,2.79,5.78,7.42,7.42,0,0,1-3.12,6.3,11,11,0,0,1-6.73,1.92q-5.38,0-8-3.23a8.08,8.08,0,0,1-1.76-5h7.57a4,4,0,0,0,.73,1.93,1.93,1.93,0,0,0,1.5.55,1.84,1.84,0,0,0,1.32-.49,1.59,1.59,0,0,0,.52-1.23,1.64,1.64,0,0,0-.79-1.39,14.22,14.22,0,0,0-3.25-1.34,14,14,0,0,1-5.66-3.1,6.82,6.82,0,0,1-1.92-4.92,7.1,7.1,0,0,1,3.33-6.34,11.64,11.64,0,0,1,6.48-1.72,10,10,0,0,1,6.82,2.18,7.73,7.73,0,0,1,2.56,6.05Z" fill="#33e54c"/>
      <path id="Path_5" data-name="Path 5" d="M341,265.68v12.87a8.15,8.15,0,0,1,6.27-3.2,8.859,8.859,0,0,1,3.19.62,8.529,8.529,0,0,1,2.75,1.66,6.18,6.18,0,0,1,1.79,2.75,14.919,14.919,0,0,1,.51,4.37v15.87h-8V286.05a4.71,4.71,0,0,0-.87-3,2.81,2.81,0,0,0-2.33-1.12,3,3,0,0,0-2.47,1.08,4.63,4.63,0,0,0-.88,3v14.57h-8v-34.9Z" fill="#33e54c"/>
      <path id="Path_6" data-name="Path 6" d="M385.37,282.8v9.65q0,1.59,1.95,1.59h.81v6.58H382a4.63,4.63,0,0,1-3.54-1.18,5.72,5.72,0,0,1-1.07-3.87V282.8h-2.48v-6.6h2.48v-6h8v6h2.76v6.6Z" fill="#fff"/>
      <path id="Path_7" data-name="Path 7" d="M406.92,275.35a13.14,13.14,0,0,1,13.57,13.39,12.31,12.31,0,0,1-1.44,5.81,12.56,12.56,0,0,1-5.53,5.45,15,15,0,0,1-14.43-.54,11.5,11.5,0,0,1-4.71-5.37,13.56,13.56,0,0,1-1.15-5.58,12.45,12.45,0,0,1,4.53-10.14A13.85,13.85,0,0,1,406.92,275.35Zm0,7.07a5.45,5.45,0,0,0-4.28,1.81,6.14,6.14,0,0,0-1.43,4.25,5.88,5.88,0,0,0,1.69,4.48,5.54,5.54,0,0,0,4,1.59,5.37,5.37,0,0,0,4.06-1.66,6,6,0,0,0,1.58-4.28,6.37,6.37,0,0,0-1.59-4.66,5.43,5.43,0,0,0-4.05-1.53Z" fill="#fff"/>
      <path id="Path_8" data-name="Path 8" d="M472.19,276.32h8.06l-7.65,24.3h-8.47l-3.64-13.19-3.61,13.19h-8.7l-7.58-24.3h8.07l4.27,13.31,3.56-13.31h7.63l3.79,13.31Z" fill="#33e54c"/>
      <path id="Path_9" data-name="Path 9" d="M503.5,279v-2.64h8v24.3h-8V297.9a10.44,10.44,0,0,1-8.25,3.69,11.09,11.09,0,0,1-9.16-4.3,13.17,13.17,0,0,1-2.74-8.45,14.86,14.86,0,0,1,1.82-7.22,11.66,11.66,0,0,1,4.17-4.45,12.29,12.29,0,0,1,6.58-1.79,9.37,9.37,0,0,1,4.08.82,11.48,11.48,0,0,1,3.5,2.8Zm-5.82,3a5.14,5.14,0,0,0-4.45,2.23,7.48,7.48,0,0,0-1.38,4.45,6.84,6.84,0,0,0,1.89,5,5.32,5.32,0,0,0,3.89,1.64,5.45,5.45,0,0,0,4.43-2.23,7.08,7.08,0,0,0,1.56-4.53,6.74,6.74,0,0,0-2-5.15A5.58,5.58,0,0,0,497.68,282Z" fill="#33e54c"/>
      <path id="Path_10" data-name="Path 10" d="M527.45,300.62h-8V265.68h8Z" fill="#33e54c"/>
      <path id="Path_11" data-name="Path 11" d="M543.45,300.62h-8V265.68h8Z" fill="#33e54c"/>
      <path id="Path_12" data-name="Path 12" d="M575.62,290.17H557.24a5.12,5.12,0,0,0,1.33,2.69,5.64,5.64,0,0,0,4.2,1.69,5.89,5.89,0,0,0,2.89-.7,4.62,4.62,0,0,0,1.9-2l7.35,1.87a14.51,14.51,0,0,1-3.92,5,13.22,13.22,0,0,1-8.35,2.89,14.79,14.79,0,0,1-7.09-1.77,12.35,12.35,0,0,1-4.66-4.32,13.3,13.3,0,0,1-1.89-7.15,14,14,0,0,1,1.59-6.6,11,11,0,0,1,4.78-4.81,14.43,14.43,0,0,1,6.81-1.59,14.71,14.71,0,0,1,6.58,1.49,11.53,11.53,0,0,1,5.56,5.73,16.15,16.15,0,0,1,1.33,6.58Q575.65,289.45,575.62,290.17ZM567.51,286a4.8,4.8,0,0,0-1.33-2.59,5.63,5.63,0,0,0-3.92-1.41,5.33,5.33,0,0,0-3.39,1,4.77,4.77,0,0,0-1.7,3Z" fill="#33e54c"/>
      <path id="Path_13" data-name="Path 13" d="M590.29,282.8v9.65c0,1.06.64,1.59,1.94,1.59h.82v6.58h-6.12a4.62,4.62,0,0,1-3.53-1.18,5.67,5.67,0,0,1-1.07-3.87V282.8h-2.49v-6.6h2.49v-6h8v6h2.76v6.6Z" fill="#33e54c"/>
    </g>
  </g>
</svg>
